<svg xmlns="http://www.w3.org/2000/svg" width="256" height="256" fill="none" viewBox="0 0 256 256">
  <rect width="256" height="256" fill="#0DB75F" rx="25"/>
  <path fill="#fff" d="M75.4 186v-3.96l9.18-1.98c4.2-.96 6.84-2.04 7.92-3.24 1.2-1.2 1.8-3.66 1.8-7.38V81.42c0-3.84-.6-6.36-1.8-7.56-1.08-1.2-3.72-2.22-7.92-3.06l-9.18-1.98v-3.96h102.96c-.36 1.68-.6 3.36-.72 5.04a63.4 63.4 0 0 0-.18 4.86c0 3.72.3 7.38.9 10.98.6 3.48 1.2 7.14 1.8 10.98h-3.96c-1.44-3.6-3.24-6.96-5.4-10.08s-4.62-5.82-7.38-8.1c-2.64-2.4-5.7-4.26-9.18-5.58-3.36-1.44-7.02-2.16-10.98-2.16H119.5v51.84h23.04c4.08 0 7.32-.54 9.72-1.62 2.4-1.08 4.2-2.64 5.4-4.68 1.32-2.04 2.22-4.5 2.7-7.38l1.44-8.28h3.96v49.86h-3.96l-1.62-8.64c-.48-2.88-1.38-5.28-2.7-7.2-1.2-2.04-3-3.54-5.4-4.5-2.28-1.08-5.34-1.62-9.18-1.62h-23.4v40.86c0 3.72.6 6.24 1.8 7.56 1.2 1.2 3.84 2.22 7.92 3.06l10.44 1.98V186H75.4Z"/>
</svg>
